<svg width="133" height="133" viewBox="0 0 133 133" fill="none" xmlns="http://www.w3.org/2000/svg">
<g filter="url(#filter0_d_6_1007)">
<rect x="11" y="9" width="111" height="111" rx="13.5" fill="#116631"/>
<path opacity="0.9" d="M47.117 81.5271C46.6925 81.4602 46.3477 81.2445 46.0824 80.8799C45.8287 80.5312 45.7342 80.1514 45.799 79.7407L51.1815 45.6073C51.3283 44.6762 51.6582 43.9635 52.1711 43.4691C52.7 42.9631 53.3383 42.6077 54.0863 42.4029C54.6433 42.2522 55.1869 42.1415 55.7173 42.0708C56.2498 41.9864 56.8637 41.9639 57.5591 42.0034C58.2703 42.0314 59.1599 42.1295 60.2279 42.2979C62.131 42.598 63.8544 43.0592 65.398 43.6815C66.9554 44.306 68.4482 44.9834 69.8766 45.7138C71.3049 46.4442 72.7693 47.1241 74.2697 47.7536C75.7723 48.3694 77.4272 48.8198 79.2345 49.1048C81.0007 49.3833 82.4063 49.4576 83.4511 49.3277C84.5096 49.2 85.2922 49.176 85.7988 49.2559C86.4012 49.3509 86.8841 49.5814 87.2473 49.9474C87.6106 50.3134 87.7479 50.7771 87.6594 51.3384L84.3723 72.184C84.2233 73.1288 83.8913 73.8552 83.3761 74.3633C82.8632 74.8577 82.2259 75.2063 81.4643 75.4089C80.9073 75.5596 80.3625 75.6772 79.83 75.7616C79.2997 75.8323 78.6857 75.8548 77.9882 75.829C77.2928 75.7895 76.4112 75.6855 75.3432 75.5171C73.5359 75.2321 71.881 74.7818 70.3784 74.1659C68.878 73.5364 67.4125 72.8633 65.982 72.1466C64.5537 71.4162 63.0608 70.7388 61.5035 70.1144C59.962 69.4784 58.2397 69.0104 56.3366 68.7103C54.8305 68.4728 53.5835 68.4165 52.5956 68.5413C51.6235 68.6546 50.9988 68.7456 50.7213 68.8141L48.9207 80.233C48.8538 80.6574 48.646 80.9965 48.2972 81.2502C47.9485 81.5039 47.5551 81.5962 47.117 81.5271ZM52.2014 59.4284C52.3923 59.1077 52.9481 58.8305 53.869 58.5969C54.7899 58.3632 56.0513 58.3727 57.6532 58.6253C58.1461 58.703 58.5479 58.7804 58.8585 58.8574C59.1712 58.9208 59.5229 59.0043 59.9135 59.108L58.8285 65.9881C60.2467 66.338 61.5608 66.7697 62.7708 67.2833C63.9808 67.7968 65.1533 68.3255 66.2883 68.8693L67.3473 62.1535C68.1783 62.5792 68.9872 62.9664 69.7742 63.315C70.577 63.6521 71.383 63.9686 72.1923 64.2646C73.0174 64.5491 73.8811 64.8116 74.7834 65.0521L73.6952 71.9527C74.0447 72.0499 74.3953 72.1403 74.747 72.2238C75.1008 72.2936 75.4625 72.3577 75.8322 72.416C77.4341 72.6686 78.6956 72.6781 79.6164 72.4444C80.5373 72.2107 81.0932 71.9336 81.2841 71.6129L82.2265 65.6364C81.5117 65.7202 80.6859 65.7513 79.7491 65.7299C78.8123 65.7085 77.7826 65.6092 76.6599 65.4322C76.2902 65.3739 75.9558 65.3141 75.6568 65.2529C75.3714 65.1939 75.0803 65.127 74.7834 65.0521L75.8812 58.0898C76.1803 58.151 76.4851 58.2202 76.7957 58.2972C77.1221 58.3627 77.4428 58.4203 77.7577 58.4699C78.99 58.6643 80.0904 58.7606 81.0588 58.759C82.041 58.7595 82.7962 58.7312 83.3244 58.6742L84.3121 52.4102C83.5973 52.494 82.7715 52.5251 81.8347 52.5037C80.898 52.4823 79.8682 52.383 78.7455 52.206C78.4169 52.1542 78.0962 52.0966 77.7835 52.0332C77.4707 51.9699 77.1659 51.9008 76.869 51.8259L75.8812 58.0898C74.5178 57.7486 73.2369 57.3291 72.0384 56.8314C70.8537 56.3359 69.6559 55.7892 68.4452 55.1913L69.433 48.9274C68.2316 48.359 67.0281 47.8044 65.8225 47.2635C64.6327 46.7111 63.3582 46.2505 61.9991 45.8818L61.0113 52.1458C60.6618 52.0486 60.2759 51.9596 59.8536 51.879C59.4472 51.7869 59.0797 51.7149 58.7511 51.6631C57.1492 51.4105 55.8878 51.401 54.9669 51.6346C54.046 51.8683 53.4901 52.1455 53.2992 52.4662L52.2014 59.4284ZM59.9135 59.108L61.0113 52.1458C62.4137 52.5072 63.6961 52.962 64.8585 53.5102C66.0231 54.0446 67.2186 54.605 68.4452 55.1913L67.3473 62.1535C66.0408 61.5406 64.8247 60.977 63.699 60.4627C62.5733 59.9484 61.3115 59.4968 59.9135 59.108Z" fill="white"/>
</g>
<defs>
<filter id="filter0_d_6_1007" x="0.200001" y="7.15256e-07" width="132.6" height="132.6" filterUnits="userSpaceOnUse" color-interpolation-filters="sRGB">
<feFlood flood-opacity="0" result="BackgroundImageFix"/>
<feColorMatrix in="SourceAlpha" type="matrix" values="0 0 0 0 0 0 0 0 0 0 0 0 0 0 0 0 0 0 127 0" result="hardAlpha"/>
<feOffset dy="1.8"/>
<feGaussianBlur stdDeviation="5.4"/>
<feComposite in2="hardAlpha" operator="out"/>
<feColorMatrix type="matrix" values="0 0 0 0 0 0 0 0 0 0 0 0 0 0 0 0 0 0 0.04 0"/>
<feBlend mode="normal" in2="BackgroundImageFix" result="effect1_dropShadow_6_1007"/>
<feBlend mode="normal" in="SourceGraphic" in2="effect1_dropShadow_6_1007" result="shape"/>
</filter>
</defs>
</svg>
