<svg width="14" height="12" viewBox="0 0 14 12" fill="none" xmlns="http://www.w3.org/2000/svg">
<path d="M0.743164 6.05762C0.743164 5.84342 0.825195 5.65658 0.989258 5.49707L5.4873 1.00586C5.56934 0.923828 5.65592 0.862305 5.74707 0.821289C5.83822 0.780273 5.93392 0.759766 6.03418 0.759766C6.24382 0.759766 6.41927 0.828125 6.56055 0.964844C6.70182 1.10156 6.77246 1.27246 6.77246 1.47754C6.77246 1.58691 6.75195 1.68717 6.71094 1.77832C6.66992 1.86491 6.61523 1.94238 6.54688 2.01074L5.01562 3.5625L2.47266 5.89355L2.22656 5.44922L4.59863 5.30566H12.9043C13.1322 5.30566 13.3145 5.3763 13.4512 5.51758C13.5924 5.6543 13.6631 5.83431 13.6631 6.05762C13.6631 6.27637 13.5924 6.45638 13.4512 6.59766C13.3145 6.73438 13.1322 6.80273 12.9043 6.80273H4.59863L2.22656 6.66602L2.47266 6.22852L5.01562 8.55273L6.54688 10.0977C6.61523 10.166 6.66992 10.2458 6.71094 10.3369C6.75195 10.4281 6.77246 10.526 6.77246 10.6309C6.77246 10.8359 6.70182 11.0068 6.56055 11.1436C6.41927 11.2803 6.24382 11.3486 6.03418 11.3486C5.83366 11.3486 5.65365 11.2712 5.49414 11.1162L0.989258 6.61816C0.825195 6.45866 0.743164 6.27181 0.743164 6.05762Z" fill="#15803D"/>
</svg>
