<svg width="133" height="133" viewBox="0 0 133 133" fill="none" xmlns="http://www.w3.org/2000/svg">
<g filter="url(#filter0_d_6_970)">
<rect x="11" y="9" width="111" height="111" rx="13.5" fill="#116631"/>
<path opacity="0.9" d="M65.9212 65.3639C65.9396 65.3639 65.9563 65.3597 65.9711 65.3512C65.986 65.3427 65.9991 65.33 66.0104 65.313L66.5093 64.5264C66.5157 64.5157 66.5217 64.5044 66.5274 64.4924C66.5331 64.4804 66.5359 64.4683 66.5359 64.4563C66.5359 64.4315 66.5267 64.4121 66.5083 64.3979C66.4899 64.383 66.4694 64.3756 66.4467 64.3756C66.4156 64.3756 66.3901 64.3919 66.3703 64.4244L65.917 65.1527L65.7015 64.8745C65.688 64.8569 65.675 64.8448 65.6622 64.8385C65.6502 64.8321 65.6364 64.8289 65.6208 64.8289C65.5968 64.8289 65.5766 64.8377 65.5603 64.8554C65.544 64.8724 65.5359 64.8929 65.5359 64.917C65.5359 64.929 65.538 64.9411 65.5423 64.9531C65.5472 64.9644 65.5536 64.9754 65.5614 64.986L65.8278 65.313C65.842 65.3314 65.8565 65.3445 65.8713 65.3523C65.8862 65.36 65.9028 65.3639 65.9212 65.3639Z" fill="#116631"/>
<path opacity="0.9" d="M60.9966 63.0824C62.2579 63.0824 63.2836 62.6943 64.0737 61.9181C64.8638 61.128 65.2588 60.1023 65.2588 58.841C65.2588 57.6212 64.9192 56.644 64.24 55.9094C63.5609 55.1748 62.6738 54.8075 61.5788 54.8075C61.0105 54.8075 60.5045 54.8976 60.061 55.0777C59.6174 55.2579 59.2363 55.549 58.9175 55.951H58.4808C58.564 55.5767 58.7234 55.2094 58.959 54.849C59.1947 54.4887 59.4927 54.1629 59.8531 53.8718C60.1857 53.5946 60.5461 53.359 60.9342 53.1649C61.3223 52.9709 61.7451 52.8254 62.2025 52.7283C62.5906 52.6452 62.854 52.5412 62.9926 52.4165C63.145 52.2778 63.2213 52.0907 63.2213 51.8551C63.2213 51.3561 62.9233 51.1066 62.3272 51.1066C61.6481 51.1066 60.9204 51.2937 60.1442 51.668C59.3679 52.0422 58.6888 52.5412 58.1066 53.1649C57.5244 53.8025 57.0878 54.5233 56.7967 55.3272C56.5057 56.1173 56.3601 56.949 56.3601 57.8222C56.3601 59.4855 56.8106 60.7815 57.7116 61.7102C58.6125 62.625 59.7075 63.0824 60.9966 63.0824ZM72.3487 63.0616C73.61 63.0616 74.6357 62.6735 75.4258 61.8973C76.2297 61.1072 76.6317 60.0815 76.6317 58.8202C76.6317 57.6004 76.2921 56.6232 75.6129 55.8886C74.9337 55.154 74.0397 54.7867 72.9308 54.7867C72.3764 54.7867 71.8705 54.8768 71.4131 55.057C70.9695 55.2371 70.5883 55.5282 70.2695 55.9302H69.8537C69.9369 55.5698 70.0893 55.2164 70.3111 54.8698C70.5329 54.5094 70.817 54.1837 71.1636 53.8926C71.4962 53.5877 71.8635 53.3451 72.2655 53.1649C72.6675 52.9709 73.1041 52.8184 73.5754 52.7075C73.9635 52.6244 74.2268 52.5204 74.3654 52.3957C74.5179 52.2571 74.5941 52.0699 74.5941 51.8343C74.5941 51.3353 74.2892 51.0858 73.6793 51.0858C73.0001 51.0858 72.2655 51.2799 71.4754 51.668C70.6992 52.0561 70.0339 52.5481 69.4795 53.1442C68.8973 53.7818 68.4607 54.5025 68.1696 55.3065C67.8785 56.0965 67.733 56.9282 67.733 57.8014C67.733 59.4647 68.1835 60.7607 69.0844 61.6894C69.9854 62.6042 71.0735 63.0616 72.3487 63.0616ZM58.1898 70.0891H74.8228C75.1832 70.0891 75.4882 69.9643 75.7376 69.7148C75.9871 69.4653 76.1119 69.1604 76.1119 68.8C76.1119 68.4396 75.9871 68.1416 75.7376 67.906C75.4882 67.6565 75.1832 67.5318 74.8228 67.5318H58.1898C57.8155 67.5318 57.5037 67.6565 57.2542 67.906C57.0047 68.1416 56.8799 68.4396 56.8799 68.8C56.8799 69.1604 57.0047 69.4653 57.2542 69.7148C57.5037 69.9643 57.8155 70.0891 58.1898 70.0891ZM58.1898 77.3453H66.1321C66.5063 77.3453 66.8112 77.2274 67.0469 76.9918C67.2964 76.7423 67.4211 76.4374 67.4211 76.077C67.4211 75.7166 67.2964 75.4117 67.0469 75.1622C66.8112 74.9127 66.5063 74.7879 66.1321 74.7879H58.1898C57.8155 74.7879 57.5037 74.9127 57.2542 75.1622C57.0047 75.4117 56.8799 75.7166 56.8799 76.077C56.8799 76.4374 57.0047 76.7423 57.2542 76.9918C57.5037 77.2274 57.8155 77.3453 58.1898 77.3453ZM49 80.0689V48.5285C49 46.3662 49.5336 44.7375 50.6009 43.6425C51.6821 42.5475 53.2969 42 55.4453 42H77.5257C79.6741 42 81.282 42.5475 82.3493 43.6425C83.4304 44.7375 83.971 46.3662 83.971 48.5285V80.0689C83.971 82.2451 83.4304 83.8737 82.3493 84.9549C81.282 86.036 79.6741 86.5766 77.5257 86.5766H55.4453C53.2969 86.5766 51.6821 86.036 50.6009 84.9549C49.5336 83.8737 49 82.2451 49 80.0689Z" fill="white"/>
</g>
<defs>
<filter id="filter0_d_6_970" x="0.200001" y="7.15256e-07" width="132.6" height="132.6" filterUnits="userSpaceOnUse" color-interpolation-filters="sRGB">
<feFlood flood-opacity="0" result="BackgroundImageFix"/>
<feColorMatrix in="SourceAlpha" type="matrix" values="0 0 0 0 0 0 0 0 0 0 0 0 0 0 0 0 0 0 127 0" result="hardAlpha"/>
<feOffset dy="1.8"/>
<feGaussianBlur stdDeviation="5.4"/>
<feComposite in2="hardAlpha" operator="out"/>
<feColorMatrix type="matrix" values="0 0 0 0 0 0 0 0 0 0 0 0 0 0 0 0 0 0 0.04 0"/>
<feBlend mode="normal" in2="BackgroundImageFix" result="effect1_dropShadow_6_970"/>
<feBlend mode="normal" in="SourceGraphic" in2="effect1_dropShadow_6_970" result="shape"/>
</filter>
</defs>
</svg>
