<svg width="133" height="133" viewBox="0 0 133 133" fill="none" xmlns="http://www.w3.org/2000/svg">
<g filter="url(#filter0_d_6_931)">
<rect x="11" y="9" width="111" height="111" rx="13.5" fill="#116631"/>
<path opacity="0.9" d="M49.9027 81.3146C50.7898 82.2017 52.162 82.6452 54.0194 82.6452H58.5311C58.9469 82.6452 59.2935 82.7908 59.5707 83.0819L62.7726 86.2629C64.0893 87.5797 65.3715 88.2312 66.6189 88.2173C67.8664 88.2173 69.1416 87.5659 70.4446 86.2629L73.6464 83.0819C73.9375 82.7908 74.291 82.6452 74.7068 82.6452H79.1977C81.0551 82.6452 82.4273 82.2017 83.3144 81.3146C84.2015 80.4414 84.645 79.0691 84.645 77.1979V72.707C84.645 72.2912 84.7906 71.9377 85.0816 71.6466L88.2627 68.4448C89.5795 67.1418 90.231 65.8666 90.2171 64.6192C90.2171 63.3717 89.5657 62.0896 88.2627 60.7728L85.0816 57.5709C84.7906 57.2798 84.645 56.9333 84.645 56.5313V52.0196C84.645 50.1761 84.2015 48.8108 83.3144 47.9237C82.4412 47.0228 81.0689 46.5723 79.1977 46.5723H74.7068C74.291 46.5723 73.9375 46.4337 73.6464 46.1565L70.4446 42.9754C69.1416 41.6447 67.8664 40.9864 66.6189 41.0002C65.3715 41.0002 64.0893 41.6586 62.7726 42.9754L59.5707 46.1565C59.2935 46.4337 58.9469 46.5723 58.5311 46.5723H54.0194C52.162 46.5723 50.7898 47.0158 49.9027 47.9029C49.0156 48.7762 48.5721 50.1484 48.5721 52.0196V56.5313C48.5721 56.9333 48.4335 57.2798 48.1562 57.5709L44.9752 60.7728C43.6584 62.0896 43 63.3717 43 64.6192C43 65.8666 43.6584 67.1418 44.9752 68.4448L48.1562 71.6466C48.4335 71.9377 48.5721 72.2912 48.5721 72.707V77.1979C48.5721 79.0553 49.0156 80.4275 49.9027 81.3146Z" fill="white"/>
<path opacity="0.9" d="M63.7904 74.5481C64.1508 74.5481 64.4765 74.465 64.7676 74.2986C65.0587 74.1323 65.3151 73.8828 65.5369 73.5501L75.3088 58.1438C75.4336 57.9359 75.5514 57.7141 75.6623 57.4785C75.7732 57.2428 75.8286 57.0072 75.8286 56.7715C75.8286 56.2864 75.6484 55.9052 75.288 55.628C74.9276 55.3369 74.5257 55.1914 74.0821 55.1914C73.4722 55.1914 72.9733 55.5102 72.5851 56.1478L63.7073 70.4107L59.4866 64.9633C59.2233 64.6168 58.9668 64.3812 58.7173 64.2564C58.4817 64.1317 58.2114 64.0693 57.9065 64.0693C57.4352 64.0693 57.0402 64.2426 56.7214 64.5891C56.4026 64.9217 56.2432 65.3237 56.2432 65.795C56.2432 66.0306 56.2847 66.2663 56.3679 66.5019C56.4649 66.7237 56.5897 66.9385 56.7422 67.1464L61.9608 73.5501C62.238 73.9105 62.5221 74.167 62.8132 74.3194C63.1043 74.4719 63.43 74.5481 63.7904 74.5481Z" fill="#116631"/>
</g>
<defs>
<filter id="filter0_d_6_931" x="0.200001" y="7.15256e-07" width="132.6" height="132.6" filterUnits="userSpaceOnUse" color-interpolation-filters="sRGB">
<feFlood flood-opacity="0" result="BackgroundImageFix"/>
<feColorMatrix in="SourceAlpha" type="matrix" values="0 0 0 0 0 0 0 0 0 0 0 0 0 0 0 0 0 0 127 0" result="hardAlpha"/>
<feOffset dy="1.8"/>
<feGaussianBlur stdDeviation="5.4"/>
<feComposite in2="hardAlpha" operator="out"/>
<feColorMatrix type="matrix" values="0 0 0 0 0 0 0 0 0 0 0 0 0 0 0 0 0 0 0.04 0"/>
<feBlend mode="normal" in2="BackgroundImageFix" result="effect1_dropShadow_6_931"/>
<feBlend mode="normal" in="SourceGraphic" in2="effect1_dropShadow_6_931" result="shape"/>
</filter>
</defs>
</svg>
