<svg width="38" height="18" viewBox="0 0 38 18" fill="none" xmlns="http://www.w3.org/2000/svg">
<path d="M2.27557 4.27273V13H0.958807V4.27273H2.27557ZM4.19318 13V4.27273H7.30398C7.98011 4.27273 8.54119 4.3892 8.98722 4.62216C9.43608 4.85511 9.77131 5.17756 9.9929 5.58949C10.2145 5.99858 10.3253 6.47159 10.3253 7.00852C10.3253 7.54261 10.2131 8.01278 9.98864 8.41903C9.76705 8.82244 9.43182 9.13636 8.98295 9.3608C8.53693 9.58523 7.97585 9.69744 7.29972 9.69744H4.94318V8.56392H7.1804C7.60653 8.56392 7.95313 8.50284 8.22017 8.38068C8.49006 8.25852 8.6875 8.08097 8.8125 7.84801C8.9375 7.61506 9 7.33523 9 7.00852C9 6.67898 8.93608 6.39347 8.80824 6.15199C8.68324 5.91051 8.4858 5.72585 8.21591 5.59801C7.94886 5.46733 7.59801 5.40199 7.16335 5.40199H5.50994V13H4.19318ZM8.50142 9.0625L10.6577 13H9.15767L7.04403 9.0625H8.50142ZM11.9276 13V4.27273H15.0384C15.7145 4.27273 16.2756 4.3892 16.7216 4.62216C17.1705 4.85511 17.5057 5.17756 17.7273 5.58949C17.9489 5.99858 18.0597 6.47159 18.0597 7.00852C18.0597 7.54261 17.9474 8.01278 17.723 8.41903C17.5014 8.82244 17.1662 9.13636 16.7173 9.3608C16.2713 9.58523 15.7102 9.69744 15.0341 9.69744H12.6776V8.56392H14.9148C15.3409 8.56392 15.6875 8.50284 15.9545 8.38068C16.2244 8.25852 16.4219 8.08097 16.5469 7.84801C16.6719 7.61506 16.7344 7.33523 16.7344 7.00852C16.7344 6.67898 16.6705 6.39347 16.5426 6.15199C16.4176 5.91051 16.2202 5.72585 15.9503 5.59801C15.6832 5.46733 15.3324 5.40199 14.8977 5.40199H13.2443V13H11.9276ZM16.2358 9.0625L18.392 13H16.892L14.7784 9.0625H16.2358Z" fill="#15803D"/>
<path d="M30.1016 14.8223C29.2734 14.8223 28.4941 14.6641 27.7637 14.3477C27.0332 14.0352 26.3887 13.5996 25.8301 13.041C25.2754 12.4824 24.8398 11.8379 24.5234 11.1074C24.207 10.377 24.0488 9.59766 24.0488 8.76953C24.0488 7.94141 24.207 7.16211 24.5234 6.43164C24.8398 5.70117 25.2754 5.05859 25.8301 4.50391C26.3887 3.94531 27.0312 3.50781 27.7578 3.19141C28.4883 2.875 29.2676 2.7168 30.0957 2.7168C30.9277 2.7168 31.709 2.875 32.4395 3.19141C33.1699 3.50781 33.8145 3.94531 34.373 4.50391C34.9316 5.05859 35.3691 5.70117 35.6855 6.43164C36.002 7.16211 36.1602 7.94141 36.1602 8.76953C36.1602 9.59766 36.002 10.377 35.6855 11.1074C35.3691 11.8379 34.9316 12.4824 34.373 13.041C33.8145 13.5996 33.1699 14.0352 32.4395 14.3477C31.709 14.6641 30.9297 14.8223 30.1016 14.8223ZM30.1016 13.627C30.7773 13.627 31.4082 13.502 31.9941 13.252C32.5801 13.002 33.0957 12.6543 33.541 12.209C33.9863 11.7637 34.334 11.248 34.584 10.6621C34.834 10.0762 34.959 9.44531 34.959 8.76953C34.959 8.09766 34.834 7.46875 34.584 6.88281C34.334 6.29297 33.9863 5.77539 33.541 5.33008C33.0957 4.88477 32.5781 4.53711 31.9883 4.28711C31.4023 4.03711 30.7715 3.91211 30.0957 3.91211C29.4238 3.91211 28.793 4.03711 28.2031 4.28711C27.6172 4.53711 27.1035 4.88477 26.6621 5.33008C26.2207 5.77539 25.875 6.29297 25.625 6.88281C25.375 7.46875 25.25 8.09766 25.25 8.76953C25.25 9.44531 25.375 10.0762 25.625 10.6621C25.875 11.248 26.2207 11.7637 26.6621 12.209C27.1074 12.6543 27.623 13.002 28.209 13.252C28.7988 13.502 29.4297 13.627 30.1016 13.627ZM29.0762 11.9863C28.9434 11.9863 28.832 11.9453 28.7422 11.8633C28.6562 11.7773 28.6133 11.6699 28.6133 11.541C28.6133 11.4121 28.6562 11.3066 28.7422 11.2246C28.832 11.1387 28.9434 11.0957 29.0762 11.0957H29.7734V8.64648H29.1816C29.0488 8.64648 28.9375 8.60547 28.8477 8.52344C28.7578 8.4375 28.7129 8.33008 28.7129 8.20117C28.7129 8.07617 28.7578 7.9707 28.8477 7.88477C28.9375 7.79883 29.0488 7.75586 29.1816 7.75586H30.2832C30.4473 7.75586 30.5703 7.80859 30.6523 7.91406C30.7383 8.01562 30.7812 8.1543 30.7812 8.33008V11.0957H31.4316C31.5645 11.0957 31.6738 11.1387 31.7598 11.2246C31.8496 11.3066 31.8945 11.4121 31.8945 11.541C31.8945 11.6699 31.8496 11.7773 31.7598 11.8633C31.6738 11.9453 31.5645 11.9863 31.4316 11.9863H29.0762ZM30.0664 6.84766C29.8477 6.84766 29.6602 6.77148 29.5039 6.61914C29.3516 6.46289 29.2754 6.27539 29.2754 6.05664C29.2754 5.83398 29.3516 5.64648 29.5039 5.49414C29.6602 5.33789 29.8477 5.25977 30.0664 5.25977C30.2852 5.25977 30.4707 5.33789 30.623 5.49414C30.7793 5.64648 30.8574 5.83398 30.8574 6.05664C30.8574 6.27539 30.7793 6.46289 30.623 6.61914C30.4707 6.77148 30.2852 6.84766 30.0664 6.84766Z" fill="#15803D"/>
</svg>
